<svg xmlns="http://www.w3.org/2000/svg" width="220" height="220" viewBox="0 0 220 220" fill="none">
  <rect width="220" height="220" rx="36" fill="#F8F1E5"/>
  <path d="M106 24c0-8 6-14 14-14 9 0 15 6 15 14v10h-29V24z" fill="#6D4426"/>
  <path d="M108 36h25v18h-25z" fill="#7A4B2B"/>
  <path d="M110 34c7-10 21-10 28 0" stroke="#5C3922" stroke-width="3" stroke-linecap="round"/>
  <circle cx="114" cy="31" r="2.5" fill="#2C1A10"/>
  <circle cx="131" cy="31" r="2.5" fill="#2C1A10"/>
  <path d="M117 54h9v89h-9z" fill="#6F4528"/>
  <path d="M86 86h72" stroke="#6F4528" stroke-width="4" stroke-linecap="round"/>
  <path d="M76 98h92" stroke="#6F4528" stroke-width="4" stroke-linecap="round"/>
  <path d="M68 112c0-15 19-27 43-27s43 12 43 27v58c0 20-19 34-43 34s-43-14-43-34v-58z" fill="#A46C3E"/>
  <path d="M90 138h42" stroke="#2E1D12" stroke-width="3"/>
  <circle cx="90" cy="149" r="4" fill="#2E1D12"/>
  <circle cx="132" cy="149" r="4" fill="#2E1D12"/>
  <path d="M111 52v148" stroke="#F0D8BC" stroke-width="2"/>
  <path d="M116 52v148" stroke="#F0D8BC" stroke-width="2"/>
</svg>
